<svg width="16" height="13" viewBox="0 0 16 13" fill="none" xmlns="http://www.w3.org/2000/svg">
<path d="M0.539587 2.87024L0.500031 2C0.500031 0.895431 1.39546 0 2.50003 0H6.1716C6.70204 0 7.21074 0.210714 7.58582 0.585787L8.41424 1.41421C8.78932 1.78929 9.29803 2 9.82846 2H13.81C14.986 2 15.9082 3.00984 15.8018 4.18107L15.1654 11.1811C15.0717 12.2112 14.208 13 13.1736 13H2.82647C1.79206 13 0.928332 12.2112 0.834681 11.1811L0.198318 4.18107C0.154263 3.69647 0.286313 3.23949 0.539587 2.87024ZM2.1901 3C1.60207 3 1.14097 3.50492 1.19421 4.09054L1.83057 11.0905C1.8774 11.6056 2.30926 12 2.82647 12H13.1736C13.6908 12 14.1227 11.6056 14.1695 11.0905L14.8059 4.09054C14.8591 3.50492 14.398 3 13.81 3H2.1901ZM6.87871 1.29289C6.69117 1.10536 6.43682 1 6.1716 1H2.50003C1.95405 1 1.51027 1.43755 1.50021 1.98112L1.5065 2.11964C1.7193 2.04231 1.94939 2 2.1901 2H7.58582L6.87871 1.29289Z" fill="#C8A6A6"/>
</svg>
